<?xml version="1.0" standalone="no"?><!DOCTYPE svg PUBLIC "-//W3C//DTD SVG 1.1//EN" "http://www.w3.org/Graphics/SVG/1.1/DTD/svg11.dtd"><svg t="1585223658653" class="icon" viewBox="0 0 1024 1024" version="1.1" xmlns="http://www.w3.org/2000/svg" p-id="3498" xmlns:xlink="http://www.w3.org/1999/xlink" width="200" height="200"><defs><style type="text/css"></style></defs><path d="M961.72259555 1029.29749333H59.94723555c-18.64135111 0-37.28270222-9.32067555-48.93354666-23.30168888-11.65084445-16.31118222-16.31118222-34.95253333-11.65084444-53.59388445 46.60337778-237.67722667 240.00739555-414.77006222 473.02428444-433.41141333 78.06065778 0 162.52928 9.90321778 246.99790222 44.27320888 24.46677333 9.90321778 32.62236445 16.31118222 46.60337778 23.3016889 135.14979555 76.89557333 228.35655111 209.7152 258.64874666 365.83651555 4.66033778 18.64135111 0 37.28270222-13.98101333 53.59388445-11.65084445 13.98101333-30.29219555 23.30168889-48.93354667 23.30168888z" fill="#333333" p-id="3499"></path><path d="M61.11232 991.43224889c-7.57304889 0-14.56355555-2.91271111-18.64135111-8.15559111-0.58254222-0.58254222-0.58254222-1.16508445-1.16508444-1.74762667-5.82542222-5.82542222-6.40796445-15.72864-5.24288-21.55406222 43.10812445-221.36604445 224.27875555-387.39057778 440.98446222-403.11921778h17.47626666c104.27505778 0 204.47232 32.62236445 253.40586667 63.49710222C876.08888889 697.24842667 961.72259555 817.83466667 988.51953778 959.97496889c1.16508445 8.15559111-0.58254222 15.72864-6.40796445 23.30168889-4.07779555 5.24288-11.06830222 8.15559111-18.64135111 8.15559111H61.11232z" fill="#333333" p-id="3500"></path><path d="M494.52373333 570.83676445c101.36234667 0 198.64689778 31.45728 245.83281778 61.16693333h0.58254222c124.66403555 73.98286222 207.38503111 191.07384889 233.01688889 329.71889777 0.58254222 2.91271111 0.58254222 6.99050667-4.07779555 12.23338667-0.58254222 1.16508445-3.49525333 2.33016889-6.99050667 2.33016889H61.11232c-3.49525333 0-6.40796445-1.16508445-6.99050667-2.33016889-0.58254222-1.16508445-1.74762667-2.33016889-2.91271111-2.91271111-1.16508445-1.16508445-2.33016889-4.66033778-1.16508444-8.73813333 41.94304-214.95808 217.28824889-375.73973333 427.58599111-391.46837333 5.24288 0.58254222 11.06830222 0 16.89372444 0m0-29.12711112c-5.82542222 0-12.23338667 0-18.05880888 0.58254222C252.76871111 558.60337778 66.3552 728.70570667 22.08199111 957.06225778c-2.33016889 11.65084445 0 25.63185778 9.32067556 34.95253333 6.99050667 9.32067555 18.64135111 13.98101333 30.29219555 13.98101334H963.47022222c11.65084445 0 23.30168889-4.66033778 30.29219556-13.98101334 6.99050667-9.32067555 11.65084445-20.97152 9.32067555-34.95253333-27.96202667-149.13080889-116.50844445-271.46467555-246.99790222-349.52533333-49.51608889-30.87473778-150.87843555-65.82727111-261.56145778-65.82727112zM512 539.96202667c-146.80064 0-267.96942222-121.16878222-267.96942222-267.96942222S365.19936 4.02318222 512 4.02318222s267.96942222 121.16878222 267.96942222 267.96942223S658.80064 539.96202667 512 539.96202667z" fill="#333333" p-id="3501"></path><path d="M512 502.09678222c-126.99420445 0-230.10417778-103.10997333-230.10417778-230.10417777S385.00579555 41.88842667 512 41.88842667s230.10417778 103.10997333 230.10417778 230.10417778-103.10997333 230.10417778-230.10417778 230.10417777z" fill="#333333" p-id="3502"></path><path d="M512 56.45198222c118.83861333 0 215.54062222 96.70200889 215.54062222 215.54062223S630.83861333 487.53322667 512 487.53322667s-215.54062222-96.70200889-215.54062222-215.54062222 96.70200889-215.54062222 215.54062222-215.54062223m0-29.12711111c-135.14979555 0-244.66773333 109.51793778-244.66773333 244.66773334s109.51793778 244.66773333 244.66773333 244.66773333 244.66773333-109.51793778 244.66773333-244.66773333S647.14979555 27.32487111 512 27.32487111z" fill="#333333" p-id="3503"></path></svg>