<?xml version="1.0" standalone="no"?><!DOCTYPE svg PUBLIC "-//W3C//DTD SVG 1.1//EN" "http://www.w3.org/Graphics/SVG/1.1/DTD/svg11.dtd"><svg t="1585225643793" class="icon" viewBox="0 0 1024 1024" version="1.1" xmlns="http://www.w3.org/2000/svg" p-id="3625" xmlns:xlink="http://www.w3.org/1999/xlink" width="200" height="200"><defs><style type="text/css"></style></defs><path d="M512 464c88 0 160-72 160-160S600 144 512 144s-160 72-160 160 72 160 160 160z m-139.2 16c-51.2-41.6-84.8-104-84.8-176 0-123.2 100.8-224 224-224s224 100.8 224 224c0 70.4-33.6 134.4-84.8 176C811.2 526.4 928 673.6 928 848c0 52.8-43.2 96-96 96H192c-52.8 0-96-43.2-96-96 0-174.4 116.8-321.6 276.8-368zM832 880c17.6 0 32-14.4 32-32 0-176-144-320-320-320h-64c-176 0-320 144-320 320 0 17.6 14.4 32 32 32h640z" fill="#4A576A" p-id="3626"></path></svg>